<svg width="56" height="52" viewBox="0 0 56 52" fill="none" xmlns="http://www.w3.org/2000/svg">
<g clip-path="url(#clip0_1734_6595)">
<path d="M13.549 24.2797L2.332 18.0047L19.99 8.17969L37.648 18.0077L26.431 24.2797C25.5979 23.404 24.597 22.7051 23.488 22.2247C22.3838 21.7446 21.192 21.4988 19.988 21.5027C18.784 21.4988 17.5922 21.7446 16.488 22.2247C15.3804 22.7056 14.3809 23.4044 13.549 24.2797ZM17.769 51.3797L0 41.4967V21.7797L11.383 28.1657C11.2754 28.519 11.2011 28.8815 11.161 29.2487C11.1225 29.6268 11.1038 30.0066 11.105 30.3867C11.0822 32.3557 11.728 34.2743 12.937 35.8287C14.1369 37.4062 15.8425 38.5236 17.768 38.9937L17.769 51.3797ZM19.99 34.8327C19.4061 34.8416 18.8265 34.7308 18.287 34.5073C17.7475 34.2837 17.2595 33.952 16.853 33.5327C16.4337 33.1262 16.102 32.6382 15.8784 32.0987C15.6548 31.5592 15.5441 30.9796 15.553 30.3957C15.5441 29.8118 15.6548 29.2322 15.8784 28.6927C16.102 28.1532 16.4337 27.6651 16.853 27.2587C17.2595 26.8393 17.7475 26.5077 18.287 26.2841C18.8265 26.0605 19.4061 25.9498 19.99 25.9587C20.5739 25.9498 21.1535 26.0605 21.693 26.2841C22.2325 26.5077 22.7205 26.8393 23.127 27.2587C23.5463 27.6651 23.878 28.1532 24.1016 28.6927C24.3252 29.2322 24.4359 29.8118 24.427 30.3957C24.4359 30.9796 24.3252 31.5592 24.1016 32.0987C23.878 32.6382 23.5463 33.1262 23.127 33.5327C22.7205 33.952 22.2325 34.2837 21.693 34.5073C21.1535 34.7308 20.5739 34.8416 19.99 34.8327ZM22.211 51.3797V38.9967C24.1365 38.5266 25.8421 37.4092 27.042 35.8317C28.251 34.2773 28.8968 32.3588 28.874 30.3897C28.8752 30.0097 28.8565 29.6298 28.818 29.2517C28.7779 28.8846 28.7036 28.522 28.596 28.1687L39.98 21.7797V41.4917L22.211 51.3797Z" fill="black"/>
<path d="M20.0409 36.4354C23.3756 36.4354 26.0789 33.7321 26.0789 30.3974C26.0789 27.0627 23.3756 24.3594 20.0409 24.3594C16.7062 24.3594 14.0029 27.0627 14.0029 30.3974C14.0029 33.7321 16.7062 36.4354 20.0409 36.4354Z" fill="#ef0"/>
<path d="M20.0409 35.4354C22.8233 35.4354 25.0789 33.1798 25.0789 30.3974C25.0789 27.615 22.8233 25.3594 20.0409 25.3594C17.2585 25.3594 15.0029 27.615 15.0029 30.3974C15.0029 33.1798 17.2585 35.4354 20.0409 35.4354Z" stroke="black" stroke-width="2"/>
<path d="M55.8222 14.721L53.6882 12.66L48.4622 17.886V0L45.5182 0V17.885L40.2922 12.659L38.1572 14.721L46.9892 23.553L55.8222 14.721Z" fill="black"/>
</g>
<defs>
<clipPath id="clip0_1734_6595">
<rect width="55.822" height="51.377" fill="white"/>
</clipPath>
</defs>
</svg>
